<svg width="337" height="448" viewBox="0 0 337 448" fill="none" xmlns="http://www.w3.org/2000/svg">
<path d="M299.479 291.196L295.5 291.5V248.5L323.5 254.363V265.272C323.5 278.864 313.031 290.162 299.479 291.196Z" fill="white"/>
<ellipse cx="46" cy="258" rx="27" ry="29" fill="white"/>
<ellipse cx="306" cy="237.5" rx="27" ry="23.5" fill="white"/>
<path d="M308.5 256.5L312.707 257.138C315.364 257.54 318.08 257.307 320.63 256.457L323.5 255.5V257.909L320.217 258.805C317.931 259.428 315.54 259.567 313.197 259.212L308.5 258V256.5Z" fill="#D9D9D9"/>
<path d="M296.911 150.797C284.728 39.4657 238.082 20.1393 232.267 18.1499C231.881 18.0178 231.546 17.7673 231.2 17.5505C230.226 16.9403 228.869 17.2804 228.341 18.3802C228.306 18.4532 228.304 18.4698 228.264 18.5405C227.01 20.7878 183.256 99.5379 207.099 102.154L296.911 150.797Z" fill="white"/>
<path d="M41 150.797C53.183 39.4657 99.8288 20.1393 105.644 18.1499C106.03 18.0178 106.365 17.7673 106.711 17.5505C107.684 16.9403 109.042 17.2804 109.57 18.3802C109.605 18.4532 109.607 18.4698 109.646 18.5405C110.9 20.7878 154.655 99.5379 130.811 102.154L41 150.797Z" fill="white"/>
<rect x="41" y="96" width="256" height="256" rx="64" fill="white"/>
<rect x="49" y="104" width="240" height="240" rx="57" fill="white"/>
<g opacity="0.15">
<g clip-path="url(#clip0_909_6719)">
<path d="M167.125 104H170.875L169.938 134H168.063L167.125 104Z" fill="black"/>
<path d="M227.376 119.139L230.624 121.014L214.812 146.526L213.188 145.589L227.376 119.139Z" fill="black"/>
<path d="M271.986 162.376L273.861 165.624L247.411 179.812L246.474 178.188L271.986 162.376Z" fill="black"/>
<path d="M289 222.125V225.875L259 224.938V223.063L289 222.125Z" fill="black"/>
<path d="M273.861 282.376L271.986 285.624L246.474 269.812L247.411 268.188L273.861 282.376Z" fill="black"/>
<path d="M230.624 326.986L227.376 328.861L213.188 302.411L214.812 301.474L230.624 326.986Z" fill="black"/>
<path d="M170.875 344H167.125L168.062 314H169.937L170.875 344Z" fill="black"/>
<path d="M110.624 328.861L107.376 326.986L123.188 301.474L124.812 302.411L110.624 328.861Z" fill="black"/>
<path d="M66.0144 285.624L64.1394 282.376L90.5889 268.188L91.5264 269.812L66.0144 285.624Z" fill="black"/>
<path d="M49 225.875V222.125L79 223.062V224.937L49 225.875Z" fill="black"/>
<path d="M64.1394 165.624L66.0144 162.376L91.5264 178.188L90.5889 179.812L64.1394 165.624Z" fill="black"/>
<path d="M107.376 121.014L110.624 119.139L124.812 145.589L123.188 146.526L107.376 121.014Z" fill="black"/>
<g opacity="0.25">
<path d="M168.062 104H169.938L169.469 119H168.531L168.062 104Z" fill="black"/>
<path d="M180.611 104.559L182.476 104.755L180.442 119.624L179.509 119.526L180.611 104.559Z" fill="black"/>
<path d="M193.032 106.428L194.866 106.818L191.289 121.392L190.372 121.197L193.032 106.428Z" fill="black"/>
<path d="M205.19 109.584L206.974 110.163L201.893 124.284L201.001 123.994L205.19 109.584Z" fill="black"/>
<path d="M216.952 113.993L218.665 114.756L212.136 128.268L211.279 127.887L216.952 113.993Z" fill="black"/>
<path d="M228.188 119.608L229.812 120.546L221.906 133.302L221.094 132.833L228.188 119.608Z" fill="black"/>
<path d="M238.776 126.367L240.293 127.469L231.097 139.329L230.338 138.778L238.776 126.367Z" fill="black"/>
<path d="M248.599 134.195L249.992 135.45L239.607 146.283L238.91 145.656L248.599 134.195Z" fill="black"/>
<path d="M257.55 143.008L258.805 144.401L247.344 154.09L246.717 153.393L257.55 143.008Z" fill="black"/>
<path d="M265.531 152.708L266.633 154.224L254.222 162.662L253.671 161.904L265.531 152.708Z" fill="black"/>
<path d="M272.454 163.188L273.392 164.812L260.167 171.906L259.698 171.094L272.454 163.188Z" fill="black"/>
<path d="M278.244 174.335L279.007 176.048L265.113 181.721L264.732 180.864L278.244 174.335Z" fill="black"/>
<path d="M282.837 186.027L283.417 187.81L269.006 192L268.716 191.108L282.837 186.027Z" fill="black"/>
<path d="M286.183 198.134L286.573 199.968L271.803 202.628L271.608 201.711L286.183 198.134Z" fill="black"/>
<path d="M288.245 210.524L288.441 212.389L273.474 213.491L273.376 212.559L288.245 210.524Z" fill="black"/>
<path d="M289 223.062V224.938L274 224.469V223.531L289 223.062Z" fill="black"/>
<path d="M288.441 235.611L288.245 237.476L273.376 235.442L273.474 234.51L288.441 235.611Z" fill="black"/>
<path d="M286.573 248.032L286.183 249.866L271.608 246.289L271.803 245.372L286.573 248.032Z" fill="black"/>
<path d="M283.417 260.19L282.837 261.974L268.716 256.893L269.006 256.001L283.417 260.19Z" fill="black"/>
<path d="M279.007 271.952L278.244 273.665L264.732 267.135L265.113 266.279L279.007 271.952Z" fill="black"/>
<path d="M273.392 283.188L272.454 284.812L259.698 276.906L260.167 276.094L273.392 283.188Z" fill="black"/>
<path d="M266.633 293.777L265.531 295.294L253.671 286.098L254.222 285.339L266.633 293.777Z" fill="black"/>
<path d="M258.805 303.599L257.55 304.992L246.717 294.607L247.344 293.91L258.805 303.599Z" fill="black"/>
<path d="M249.992 312.55L248.599 313.804L238.91 302.344L239.607 301.716L249.992 312.55Z" fill="black"/>
<path d="M240.293 320.531L238.776 321.633L230.338 309.222L231.097 308.671L240.293 320.531Z" fill="black"/>
<path d="M229.812 327.455L228.188 328.392L221.094 315.167L221.906 314.699L229.812 327.455Z" fill="black"/>
<path d="M218.665 333.244L216.952 334.007L211.279 320.113L212.136 319.732L218.665 333.244Z" fill="black"/>
<path d="M206.974 337.837L205.19 338.417L201.001 324.006L201.893 323.716L206.974 337.837Z" fill="black"/>
<path d="M194.866 341.183L193.032 341.572L190.372 326.803L191.289 326.608L194.866 341.183Z" fill="black"/>
<path d="M182.476 343.245L180.611 343.441L179.509 328.474L180.442 328.376L182.476 343.245Z" fill="black"/>
<path d="M169.938 344H168.062L168.531 329H169.469L169.938 344Z" fill="black"/>
<path d="M157.389 343.44L155.524 343.244L157.558 328.376L158.491 328.474L157.389 343.44Z" fill="black"/>
<path d="M144.968 341.573L143.134 341.183L146.711 326.609L147.628 326.804L144.968 341.573Z" fill="black"/>
<path d="M132.81 338.416L131.026 337.837L136.107 323.716L136.999 324.005L132.81 338.416Z" fill="black"/>
<path d="M121.048 334.007L119.335 333.244L125.864 319.732L126.721 320.113L121.048 334.007Z" fill="black"/>
<path d="M109.812 328.392L108.188 327.455L116.094 314.699L116.906 315.167L109.812 328.392Z" fill="black"/>
<path d="M99.2241 321.633L97.7072 320.531L106.903 308.671L107.662 309.223L99.2241 321.633Z" fill="black"/>
<path d="M89.4011 313.805L88.0077 312.551L98.393 301.717L99.0897 302.344L89.4011 313.805Z" fill="black"/>
<path d="M80.45 304.993L79.1953 303.599L90.6562 293.911L91.2835 294.607L80.45 304.993Z" fill="black"/>
<path d="M72.469 295.292L71.3669 293.776L83.7777 285.338L84.3287 286.096L72.469 295.292Z" fill="black"/>
<path d="M65.5457 284.812L64.6082 283.188L77.8329 276.094L78.3017 276.906L65.5457 284.812Z" fill="black"/>
<path d="M59.7559 273.665L58.9932 271.952L72.8871 266.279L73.2684 267.136L59.7559 273.665Z" fill="black"/>
<path d="M55.1628 261.973L54.5834 260.19L68.9941 256L69.2838 256.892L55.1628 261.973Z" fill="black"/>
<path d="M51.8171 249.866L51.4273 248.032L66.197 245.372L66.3919 246.289L51.8171 249.866Z" fill="black"/>
<path d="M49.7554 237.476L49.5594 235.611L64.5262 234.509L64.6242 235.441L49.7554 237.476Z" fill="black"/>
<path d="M49 224.938V223.062L64 223.531V224.469L49 224.938Z" fill="black"/>
<path d="M49.5593 212.389L49.7553 210.524L64.6241 212.559L64.5262 213.491L49.5593 212.389Z" fill="black"/>
<path d="M51.4275 199.968L51.8173 198.134L66.3921 201.711L66.1972 202.628L51.4275 199.968Z" fill="black"/>
<path d="M54.5835 187.81L55.1629 186.026L69.2839 191.107L68.9942 191.999L54.5835 187.81Z" fill="black"/>
<path d="M58.9932 176.048L59.7558 174.335L73.2683 180.865L72.887 181.721L58.9932 176.048Z" fill="black"/>
<path d="M64.6082 164.812L65.5457 163.188L78.3017 171.094L77.8329 171.906L64.6082 164.812Z" fill="black"/>
<path d="M71.3669 154.224L72.469 152.707L84.3288 161.903L83.7777 162.662L71.3669 154.224Z" fill="black"/>
<path d="M79.1953 144.401L80.4499 143.008L91.2835 153.393L90.6561 154.09L79.1953 144.401Z" fill="black"/>
<path d="M88.0076 135.45L89.401 134.196L99.0896 145.656L98.3929 146.284L88.0076 135.45Z" fill="black"/>
<path d="M97.7073 127.469L99.2242 126.367L107.662 138.778L106.903 139.329L97.7073 127.469Z" fill="black"/>
<path d="M108.188 120.546L109.812 119.608L116.906 132.833L116.094 133.302L108.188 120.546Z" fill="black"/>
<path d="M119.335 114.755L121.048 113.993L126.721 127.887L125.864 128.268L119.335 114.755Z" fill="black"/>
<path d="M131.026 110.163L132.81 109.584L136.999 123.994L136.107 124.284L131.026 110.163Z" fill="black"/>
<path d="M143.134 106.817L144.968 106.427L147.628 121.197L146.711 121.392L143.134 106.817Z" fill="black"/>
<path d="M155.524 104.755L157.389 104.559L158.491 119.526L157.558 119.624L155.524 104.755Z" fill="black"/>
</g>
</g>
</g>
<path d="M140.542 162V162C138.617 168.736 142.889 175.671 149.771 176.982L150.734 177.166C153.962 177.78 157.303 177.104 160.037 175.281L169.208 169.167L178.323 175.243C181.091 177.088 184.478 177.759 187.74 177.106L190.48 176.558C196.343 175.386 199.154 170.444 198.144 164.552C197.978 163.583 197.875 162.702 197.875 162" stroke="black" stroke-width="6"/>
<rect x="96" y="144.549" width="40" height="10" transform="rotate(-10 96 144.549)" fill="black"/>
<rect width="40" height="10" transform="matrix(-0.984808 -0.173648 -0.173648 0.984808 242.693 143.946)" fill="black"/>
<defs>
<clipPath id="clip0_909_6719">
<rect x="49" y="104" width="240" height="240" rx="120" fill="white"/>
</clipPath>
</defs>
</svg>
