<svg width="337" height="448" viewBox="0 0 337 448" fill="none" xmlns="http://www.w3.org/2000/svg">
<path d="M269.106 312C272.827 313.274 275.88 316.299 277.881 318.86C280.258 321.901 284.2 326.658 284.66 330.219C285.141 333.949 286.529 337.592 287.108 341.329C287.643 344.784 289.289 348.734 288.614 352.216C287.237 359.325 281.745 365.728 277.354 371.935C274.912 375.386 272.95 379.149 271.14 382.794C268.949 387.207 265.88 391.402 264.7 396.042C264.072 398.512 263.078 401.131 263.006 403.652C262.91 406.963 264.035 408.683 265.792 411.706C267.619 414.85 268.61 417.236 271.893 419.733C274.539 421.745 277.861 422.087 280.969 423.482C287.417 426.377 295.757 425.982 303 425.982" stroke="white" stroke-width="32" stroke-linecap="round"/>
</svg>
